<?xml version="1.0" encoding="UTF-8" standalone="no"?>
<!-- Generator: Adobe Illustrator 16.0.3, SVG Export Plug-In . SVG Version: 6.00 Build 0)  -->

<svg
   version="1.1"
   id="Capa_1"
   x="0px"
   y="0px"
   width="2525.2715"
   height="720"
   viewBox="0 0 2525.2714 719.99999"
   enable-background="new 0 0 595.28 841.89"
   xml:space="preserve"
   sodipodi:docname="Logo del Conapo.svg"
   inkscape:version="1.1 (c68e22c387, 2021-05-23)"
   xmlns:inkscape="http://www.inkscape.org/namespaces/inkscape"
   xmlns:sodipodi="http://sodipodi.sourceforge.net/DTD/sodipodi-0.dtd"
   xmlns="http://www.w3.org/2000/svg"
   xmlns:svg="http://www.w3.org/2000/svg"><defs
   id="defs137">
	

		
		
		
		
		
		
		
		
		
		
		
		
		
		
		
		
		
		
		
		
		
		
		
		
		
		
		
		
		
		
		
		
		
		
		
		
		
		
		
		
		
		
		
		
		
		
		
		
		
		
		
		
		
		
		
		
		
		
		
		
		
		
		
		
	</defs><sodipodi:namedview
   id="namedview135"
   pagecolor="#ffffff"
   bordercolor="#666666"
   borderopacity="1.0"
   inkscape:pageshadow="2"
   inkscape:pageopacity="0.0"
   inkscape:pagecheckerboard="0"
   showgrid="false"
   fit-margin-top="0"
   fit-margin-left="0"
   fit-margin-right="0"
   fit-margin-bottom="0"
   inkscape:zoom="0.34940006"
   inkscape:cx="1452.4897"
   inkscape:cy="379.22146"
   inkscape:window-width="1920"
   inkscape:window-height="1017"
   inkscape:window-x="1912"
   inkscape:window-y="-8"
   inkscape:window-maximized="1"
   inkscape:current-layer="Capa_1" />
<g
   id="g7536"
   transform="matrix(2.080542,0,0,2.080542,-154.08732,-148.56288)"><path
     id="path4"
     style="fill:#dac9a4;fill-opacity:1"
     d="m 281.71094,71.40625 c -1.75707,-0.02877 -3.2086,1.514437 -4.69141,2.5 l -0.002,0.002 -0.008,0.0039 c -2.67628,0.728804 -5.59783,1.027248 -6.98829,4 l -0.002,0.002 h -0.002 c -6.783,3.611002 -14.13621,5.867797 -20.9082,9.716797 -6.938,3.942 -14.69457,6.561827 -21.72657,10.548829 -3.552,2.014004 -5.66384,6.177984 -10.21484,6.708984 -2.934,0.342 -5.20145,2.17652 -7.43945,3.85352 -12.761,9.563 -27.00072,16.78278 -40.26172,25.55078 -7.024,4.646 -15.19946,7.9359 -21.56446,13.00391 -10.93,8.703 -23.32589,14.87053 -34.58789,22.89453 -11.967,8.528 -24.470653,16.30712 -36.097653,25.32812 -1.492,1.158 -3.530703,2.22389 -3.095703,4.71289 1.261,7.231 9.275609,13.22738 16.974609,12.73438 3.991,-2.272 6.683551,-5.95908 9.894527,-9.08008 l 0.002,-0.002 c 0.002,-9.6e-4 0.004,-0.003 0.006,-0.004 2.89607,-0.10756 3.29985,1.35516 2.60937,3.82031 -1.163,4.171 -1.48098,8.45316 -1.70898,12.78516 -0.549,10.437 -1.08433,20.89534 -2.236331,31.27734 -1.719,15.485 -3.832843,30.91478 -3.589843,46.55078 0.217,13.961 0.13067,27.91772 0.638672,41.88672 0.641,17.625 0.330218,35.2915 0.199218,52.9375 -0.031,4.259 1.20148,5.8485 5.687504,5.8125 22.641,-0.183 45.28182,-0.0698 67.92382,-0.0488 2.468,0.002 4.98575,-0.32682 6.96875,1.82618 1.651,1.791 3.16685,0.94706 4.71485,-0.46094 2.912,-2.65 5.92231,-5.24719 9.69531,-1.11719 0.618,0.677 1.70714,0.71558 2.24414,0.0176 2.38148,-3.09343 5.77531,-1.85784 8.79297,-2.22852 0.005,10e-4 0.009,0.002 0.0137,0.004 6.257,1.615 12.61778,1.19684 18.80078,0.0898 5.163,-0.925 8.95535,-1.12325 9.02735,5.59375 0.009,0.77 0.40325,1.67149 0.90625,2.27149 0.917,1.093 1.68239,2.91617 3.40039,2.45117 1.688,-0.457 1.07222,-2.29066 0.94922,-3.47266 -0.53,-5.085 1.48014,-7.4325 6.74414,-7.3125 12.949,0.294 25.90156,0.37078 38.85156,0.55078 5.518,0.076 6.31823,1.10277 5.24023,6.63477 -0.19,0.976 -0.49925,1.93211 -0.65625,2.91211 -0.71,4.416 0.75644,7.25444 5.64844,7.02344 2.95,-0.14 5.07575,1.34239 7.21875,2.90039 2.083,1.514 3.74566,1.10237 3.84766,-1.39063 0.164,-4.037 2.86786,-6.96567 3.88086,-10.51367 1.043,-3.652 3.2,-3.75656 6.25,-3.97656 8.196,-0.589 16.16779,1.59669 24.34179,1.42969 14.324,-0.292 28.66024,-0.089 42.99024,-0.082 1.498,10e-4 3.06447,-0.19989 4.48047,0.16211 10.095,2.585 20.33004,3.84919 30.74804,3.49219 8.67,-0.297 17.0025,2.94986 25.6875,2.38086 1.462,-0.095 3.24702,0.56566 4.91602,-2.15234 -6.157,0.411 -11.12088,-0.94441 -14.67188,-4.69141 4.462,-2.042 9.37974,1.48711 14.30274,-0.33789 4.451,-1.65 8.99784,-3.03925 14.21484,-4.78125 -20.069,-7.085 -40.62817,-6.30056 -61.24219,-10.10156 2.40601,-2.552 2.65515,-5.771 5.61915,-6 3.101,-0.24 3.05836,-2.04552 3.44335,-4.35352 0.95401,-5.705 -2.83845,-10.39647 -2.81445,-15.98047 0.098,-22.145 -2.69336,-44.13607 -4.06836,-66.20507 -1.605,-25.74901 -2.74386,-51.51632 -2.88086,-77.32032 -0.007,-1.395 -0.66714,-3.22617 1.00586,-4.07617 1.743,-0.887 3.24213,0.46478 4.57813,1.30078 6.734,4.212 13.36431,8.58866 20.07031,12.84766 16.086,10.215 32.19492,20.39484 48.29492,30.58984 0.925,1.34 3.08542,1.56792 3.48242,0.91992 2.26,-3.682 4.89974,-1.29007 7.42774,-0.83007 2.05927,0.96398 4.08505,2.01558 6.19336,2.85351 0.907,0.36 2.08176,0.27986 2.50976,-0.86914 0.188,-0.503 -0.0351,-1.682 -0.28906,-1.75 -3.497,-0.945 -4.15336,-4.69384 -6.69336,-6.71484 -2.981,-2.372 -7.99089,-3.61946 -7.71289,-8.81446 0.306,-5.719 -3.44367,-7.50545 -7.88867,-8.81445 0.004,0.004 0.008,0.008 0.0117,0.0117 -0.005,-0.003 -0.009,-0.007 -0.0137,-0.01 -0.483,-0.456 -0.91499,-0.98944 -1.45899,-1.35547 -15.786,-10.648 -31.77308,-21.00846 -47.33008,-31.98046 -21.125,-14.898 -41.88714,-30.31011 -62.86914,-45.41211 -15.708,-11.307 -31.30887,-22.81271 -48.42187,-31.97071 -12.905,-6.907 -23.17725,-17.57775 -35.90625,-24.718748 -1.888,-1.059 -1.50083,-2.871047 0.0762,-4.123047 1.159,-0.92 2.54126,-1.559219 3.82226,-2.324219 l 0.002,-0.002 h 0.002 c 2.86527,-0.0055 5.55433,-1.09909 6.45313,-3.6875 0.913,-2.637 -3.09071,-1.767125 -3.84571,-3.828125 1.28,-1.393 2.45646,-2.995565 3.93946,-4.226562 4.158,-3.453002 4.15806,-5.326563 -0.58594,-7.476563 -0.44213,-0.200437 -0.86406,-0.290236 -1.26953,-0.296875 z m -28.30274,37.65039 c 0.837,0.0534 1.73714,0.47455 2.61914,1.06055 10.905,7.25 22.52743,13.43539 32.60743,21.90039 2.493,2.093 5.56989,2.93687 8.33789,4.42187 7.037,3.778 13.24887,8.68943 19.67187,13.35743 10.834,7.87398 22.73417,14.08582 34.07617,21.17382 5.75,3.593 10.55961,8.59371 15.97461,12.47071 4.505,3.227 5.82402,6.72273 6.41602,11.30273 1.044,8.075 1.85776,16.18081 2.88476,24.25781 2.518,19.814 2.29494,39.82402 4.21094,59.66602 2.753,28.497 3.53231,57.08772 5.19531,85.63672 0.318,5.455 1.65168,11.09854 2.88868,16.56054 0.868,3.834 -0.49327,4.09233 -3.69727,3.98633 -22.896,-0.758 -45.71253,-3.26195 -68.64453,-3.12695 -3.404,0.02 -4.43803,-1.59472 -4.08203,-4.63672 1.34,-11.488 2.33347,-23.0367 4.85547,-34.3457 1.74,-7.806 3.21404,-15.6341 2.24804,-23.6211 -0.324,-2.684 0.53214,-3.30445 2.74414,-3.31445 3.498,-0.018 6.99619,0.0531 10.49219,-0.006 10.785,-0.183 22.90763,-8.77348 23.01563,-19.02148 0.068,-6.49 2.39381,-15.19464 -5.24219,-20.30664 -5.117,-3.427 -10.86889,-4.66516 -16.96289,-4.53516 -0.001,6.6e-4 -0.003,10e-4 -0.004,0.002 0.001,1.5e-4 0.003,-1.5e-4 0.004,0 -2.372,1.646 -2.0355,3.23316 0.3125,4.41016 1.462,0.731 3.11051,1.19914 4.72851,1.49414 6.555,1.196 9.14269,8.13422 4.55469,13.32422 -2.91,3.291 -6.51467,6.00684 -10.01367,8.71484 -1.27,0.983 -3.17011,2.81705 -4.78711,0.99805 -1.649,-1.855 -0.67464,-4.23241 0.69336,-5.94141 1.537,-1.92 3.55595,-3.446 5.25195,-5.25 1.854,-1.972 5.98319,-4.4867 4.49219,-6.2207 -2.156,-2.505 -5.803,-4.86908 -9.875,-4.70508 -5.093,0.204 -9.08355,2.78738 -12.43555,6.35938 -1.502,1.6 -2.97464,3.01337 -5.43164,3.73437 -0.49,-2.582 1.2655,-4.15751 2.4375,-5.22851 3.581,-3.271 4.21108,-7.19671 4.20508,-11.72071 -0.008,-6.637 0.48566,-13.27311 0.72266,-19.91211 0.062,-1.72 0.66528,-3.17487 1.48828,-4.67187 3.471,-6.318 6.01033,-12.91136 5.73633,-20.31836 -0.274,-7.436 -11.04175,-17.98014 -18.46875,-18.11914 -5.90909,-0.11095 -11.48113,0.95799 -16.58008,4.06445 -0.002,0.001 -0.004,0.003 -0.006,0.004 -5.05,6.134 -10.26038,12.14459 -15.10938,18.43359 -5.734,7.438 -3.88434,17.89164 2.97266,24.05664 5.36094,4.82105 11.57625,5.75295 18.13281,6.41992 10e-4,1.4e-4 0.003,-1.3e-4 0.004,0 1.5e-4,10e-4 -1.5e-4,0.003 0,0.004 1.74591,1.61268 1.78811,3.82572 1.87305,5.91406 0.43,10.556 0.46265,21.13602 1.22265,31.66602 0.52072,7.20704 -3.05834,11.00589 -9.02344,13.54687 -0.002,0.002 -0.005,0.004 -0.008,0.006 -6.82,4.727 -13.57414,9.55 -20.49414,14.125 -2.507,1.657 -2.13994,2.80741 -0.21094,4.48243 1.578,1.37 3.31905,2.40217 5.37305,2.32617 6.132,-0.227 12.31449,0.69284 18.39649,-0.78516 2.83598,-0.69 4.31768,-0.0262 3.17968,3.25781 -0.322,0.931 -0.65415,1.97994 -0.53515,2.91992 1.112,8.83302 -2.59843,17.26349 -1.98243,26.14649 0.279,4.021 -2.43807,8.06805 -1.95507,12.49805 0.191,1.759 -1.55374,1.85351 -2.92774,1.85351 -2.666,0.001 -5.41547,0.40663 -7.98047,-0.10937 -8.769,-1.765 -17.60239,-0.98346 -26.40039,-0.93946 -4.111,0.021 -5.53917,-1.33851 -5.57617,-5.47851 -0.14,-15.841 0.53522,-31.62667 3.07422,-47.26367 0.681,-4.197 2.19534,-8.2031 6.65234,-10.6211 5.979,-3.243 8.519,-15.32098 5.125,-22.08398 -5.177,-10.313 -9.31834,-11.47956 -20.90234,-11.35156 -1.075,0.012 -2.56597,-0.24991 -2.79297,1.37109 -0.189,1.354 0.7877,2.08639 1.9707,2.52539 0.936,0.348 1.93207,0.59213 2.78907,1.07812 2.223,1.26104 6.20373,0.054 6.30273,4.33204 0.11,4.8 0.87217,9.8069 -4.17383,13.0039 -1.677,1.062 -3.10092,2.52869 -4.79492,3.55469 -1.692,1.024 -3.93366,2.29467 -5.47266,0.51367 -1.601,-1.853 -0.50711,-3.94523 1.0879,-5.74023 2.20198,-2.478 4.80417,-4.55142 6.70117,-7.35742 2.301,-3.401 1.27298,-5.07308 -2.29102,-6.20508 -7.898,-2.508 -14.70145,-1.26249 -20.18945,5.35351 -2.758,3.324 -5.70603,6.55341 -7.58203,10.44141 -4.186,8.678 0.20028,17.36133 9.98828,18.98633 5.289,0.877 7.09956,2.42612 5.85156,8.07812 -1.02,4.623 -0.73098,9.6523 -0.33398,14.44532 0.75,9.05599 -1.92425,17.80467 -1.90625,26.76367 0.005,2.229 -1.23235,2.85148 -3.15235,2.89648 -8.156,0.193 -16.31084,0.38414 -24.46484,0.61914 -3.368,0.098 -4.51517,-1.39569 -4.70117,-4.80469 -0.81,-14.798 -0.28521,-29.48825 0.96679,-44.28125 0.959,-11.335 3.26988,-22.6552 2.17188,-34.1582 -1.147,-12.009 1.63684,-23.80847 2.08984,-35.73047 0.259,-6.815 6.02696,-7.45167 10.12696,-8.26367 11.166,-2.212 14.23796,-13.56208 12.79296,-22.08008 -0.776,-4.581 -9.34356,-10.84495 -16.10156,-11.33593 -5.135,-0.373 -10.32237,-0.07 -15.48437,0.041 -1.923,0.042 -3.96114,0.7018 -3.86914,2.9668 0.086,2.128 2.2629,2.05125 3.8789,2.28125 1.482,0.211 2.97094,0.3912 4.46094,0.5332 3.604,0.344 7.31123,0.90728 7.99023,5.23828 0.655,4.179 0.14322,7.69842 -4.17578,10.73242 -5.487,3.855 -11.60376,5.43766 -17.63476,7.59766 -2.699,0.966 -3.83475,-0.14294 -3.84375,-2.71094 -0.016,-4.364 -0.006,-8.66148 4.50586,-11.39648 1.468,-0.89 2.39951,-2.71169 3.47851,-4.17969 1.114,-1.518 0.44136,-2.59503 -1.18164,-2.91601 -5.85,-1.15501 -11.6212,-2.49227 -17.5332,0.30273 -5.991,2.832 -12.75647,13.60391 -12.23047,20.25391 0.217,2.732 1.64119,5.06967 3.86719,6.01367 4.742,2.009 8.85226,5.74154 14.32226,5.81054 2.863,0.035 3.654,1.29314 3.625,3.99415 -0.219,19.80099 -0.56498,39.58009 -1.70898,59.37109 -0.922,15.942 -0.16227,31.97956 -0.19727,47.97656 -0.021,9.673 0.77916,8.69411 -8.46484,8.74609 -15.497,0.087 -30.99428,0.0774 -46.48828,0.2754 -3.534,0.045 -5.05577,-0.85991 -5.00977,-4.75391 0.44,-37.31 0.36994,-74.62874 1.21094,-111.92773 0.344,-15.249 1.42836,-30.67452 4.31836,-45.60352 1.951,-10.078 6.00895,-19.97427 9.50195,-29.82227 0.397,-1.122 1.62052,-2.18715 2.72852,-2.78515 12.961,-7.015 24.47889,-16.27008 37.21289,-23.70508 9.823,-5.736 19.43211,-12.03188 28.91211,-18.42188 3.371,-1.932 6.87248,-3.64321 10.02148,-5.94921 l 0.0137,-0.008 c 11.285,-7.065 23.7523,-12.21087 34.0293,-20.92187 2.598,-0.318 5.22994,-0.1935 7.08594,-2.8125 0.629,-0.8875 1.40323,-1.20181 2.24023,-1.14844 z m 56.52344,111.94531 c 1.64273,-0.052 2.32363,1.7061 2.14063,3.83985 -0.561,6.575 -4.30408,11.61318 -8.58008,16.24218 -1.427,1.545 -3.40172,2.58771 -5.13672,3.84571 -0.977,0.708 -1.9995,1.23831 -3.1875,0.44531 -1.113,-0.744 -1.22931,-1.88878 -1.19531,-3.80078 1.852,-8.051 6.34218,-15.13028 13.99218,-19.86328 0.76475,-0.473 1.41922,-0.69166 1.9668,-0.70899 z" /></g><g
   id="g7533"
   style="fill:#717372;fill-opacity:1"
   transform="matrix(1.7457963,0,0,1.7457963,1251.4037,-661.72595)"><path
     fill-rule="evenodd"
     clip-rule="evenodd"
     fill="#626165"
     d="m 163.471,518.984 c 0,17.622 -0.135,34.596 0.061,51.565 0.088,7.644 0.98,15.275 1.228,22.921 0.155,4.821 2.484,7.213 7.04,8.176 4.388,0.927 8.659,2.42 13.056,3.284 2.457,0.483 3.974,1.508 3.071,3.889 -0.957,2.527 1.117,7.06 -4.16,7.061 -17.165,0.003 -34.329,-0.052 -51.493,0.034 -5.531,0.028 -3.714,-4.415 -4.674,-7.169 -1.093,-3.137 1.09,-3.55 3.357,-4.072 1.772,-0.408 3.445,-1.634 5.191,-1.7 9.194,-0.346 9.608,-6.608 9.705,-13.517 0.316,-22.661 0.671,-45.32 0.212,-67.982 -0.154,-7.655 0.021,-15.315 -0.815,-22.964 -0.382,-3.487 -1.544,-5.695 -4.879,-7.306 -3.329,-1.607 -6.726,-3.041 -10.235,-3.866 -3.218,-0.757 -3.749,-2.511 -3.029,-5.017 0.734,-2.558 -0.392,-6.44 4.377,-6.501 10.988,-0.141 21.975,-0.427 32.961,-0.671 2.032,-0.045 3.294,0.846 4.444,2.575 6.059,9.109 12.187,18.169 18.918,26.814 11.209,14.395 22.214,28.948 33.403,43.357 6.298,8.11 12.802,16.06 19.191,24.099 0.605,0.763 0.925,1.973 2.154,1.741 1.361,-0.257 1.036,-1.457 1.01,-2.426 -0.549,-20.146 -1.06,-40.291 -1.675,-60.434 -0.127,-4.156 -0.845,-8.297 -0.918,-12.451 -0.089,-4.992 -2.777,-7.564 -7.244,-8.73 -3.703,-0.967 -7.416,-1.927 -11.169,-2.662 -2.009,-0.394 -4.119,-0.971 -3.124,-3.28 1.147,-2.665 -1.281,-7.49 4.077,-7.775 4.155,-0.22 8.33,-0.09 12.497,-0.093 12.499,-0.007 25.011,0.315 37.493,-0.146 5.625,-0.208 5.497,3.522 6.439,6.879 1.119,3.988 -1.998,4.242 -4.516,4.95 -16.014,4.504 -13.28,0.708 -14.05,18.562 -1.479,34.302 -1.509,68.641 -1.321,102.971 0.023,4.4 -1.079,5.926 -5.693,6.256 -14.488,1.038 -14.548,1.326 -23.676,-11.126 -14.921,-20.352 -30.309,-40.336 -46.302,-59.859 -6.092,-7.437 -11.914,-15.094 -17.908,-22.611 -0.781,-0.98 -1.854,-1.727 -3.004,-2.776 z"
     id="path6"
     style="fill:#717372;fill-opacity:1" /><path
     id="path8"
     d="m 661.9375,472.86523 c -1.85978,0.0581 -3.73095,0.1733 -5.61133,0.3418 -16.235,1.455 -30.48355,7.61494 -42.06055,19.33594 -15.681,15.874 -21.23223,35.52039 -21.24023,61.02539 -0.264,9.617 2.34709,22.36348 9.12109,34.02148 11.254,19.371 28.55227,28.70664 50.57227,30.68164 35.986,3.226 63.00458,-16.09365 72.89258,-49.34765 5.98,-20.111 5.71128,-40.83964 -3.13672,-60.55664 -5.012,-11.17 -12.83773,-19.96702 -23.42773,-26.41602 -11.60338,-7.06737 -24.09094,-9.49288 -37.10938,-9.08594 z m 0.55664,17.29688 c 8.12913,0.23987 16.15569,2.91655 23.61719,8.68555 4.711,3.643 8.01131,8.55373 9.94531,14.05273 9.105,25.879 8.06098,51.24105 -4.54102,75.87305 -3.018,5.899 -8.72946,8.11656 -14.35546,9.97656 -14.75,4.874 -33.25163,3.3663 -44.51563,-9.8457 -7.537,-8.841 -10.27525,-19.5305 -11.65625,-30.6875 -0.51,-4.124 -0.55519,-8.30264 -0.74219,-11.30664 0.583,-15.059 2.60391,-28.58344 9.12891,-41.14844 2.128,-4.097 4.61967,-7.51592 8.88867,-9.66992 7.87,-3.9735 16.10135,-6.16957 24.23047,-5.92969 z"
     style="fill:#717372;fill-opacity:1" /><path
     id="path10"
     d="m 48.125,472.51758 c -10.873848,-0.0938 -21.593828,2.36383 -31.939453,7.14258 -14.6740001,6.777 -25.7669845,17.9505 -31.958985,32.8125 -9.046999,21.717 -10.402406,44.11689 -2.191406,66.58789 5.377,14.716 15.1730471,25.77787 29.248047,32.42187 20.477,9.666 41.456203,9.86216 62.283203,0.91016 11.279,-4.849 20.033219,-13.00155 26.699214,-23.18555 9.50301,-14.516 13.08355,-30.72464 12.43555,-47.93164 0,-2.663 0.0857,-5.32933 -0.0293,-7.98633 -0.077,-1.822 -0.37493,-3.64031 -0.66993,-5.44531 -4.289,-26.258 -18.167544,-44.67356 -44.185544,-52.35156 -6.587625,-1.944 -13.167097,-2.91833 -19.691406,-2.97461 z m -3.316406,17.65625 c 7.841631,-0.0831 15.393281,2.10031 22.707031,6.88281 9.845,6.438 13.384688,16.57638 16.179687,27.10938 1.849,6.97 1.622563,14.20936 1.976563,20.31836 -0.08,14.984 -2.220781,28.38442 -8.550781,41.10742 -3.245,6.522 -8.1425,10.25395 -14.5625,12.62695 -17.097,6.319 -39.601188,3.645 -50.242188,-15.375 -4.8829998,-8.729 -7.1643435,-18.1612 -7.7773435,-28.0332 -1.047,-16.854 1.2557344,-33.06952 8.4277345,-48.60352 3.608,-7.814 9.891344,-11.05181 17.402344,-13.50781 4.924125,-1.61025 9.734474,-2.47552 14.439453,-2.52539 z"
     style="fill:#717372;fill-opacity:1" /><path
     id="path12"
     d="m 374.64453,473.5332 c -9.482,0.298 -18.96719,0.49122 -28.36719,2.07422 -2.412,0.407 -3.35626,1.63267 -3.94726,3.76367 -2.572,9.274 -5.61867,18.37827 -8.88867,27.44727 -10.528,29.202 -21.84018,58.10108 -32.95118,87.08008 -1.652,4.309 -3.56931,7.97248 -9.07031,8.39648 -2.529,0.195 -4.91764,1.87822 -7.43164,2.69922 -1.733,0.568 -2.19609,1.45974 -2.12109,3.30274 0.262,6.462 1.2447,7.57574 7.4707,7.59374 2.999,0.009 5.99905,-9.5e-4 8.99805,-0.002 11.831,-0.004 23.67633,-0.36633 35.48633,0.13867 5.883,0.252 5.16473,-4.06131 6.17773,-7.07031 1.233,-3.669 -1.96956,-3.79359 -4.35156,-4.43359 -3.85,-1.034 -7.62725,-2.4313 -11.53125,-3.1543 -3.189,-0.591 -3.24532,-2.2167 -2.44531,-4.5957 2.64499,-7.869 5.44223,-15.68996 7.86523,-23.62696 0.768,-2.513 2.1498,-2.99943 4.3418,-3.02343 15.661,-0.169 31.32142,-0.37122 46.98242,-0.57422 1.734,-0.022 3.44372,0.0746 4.13672,2.01758 3.12,8.737 6.17587,17.49932 9.29687,26.23632 0.731,2.046 0.15819,2.99247 -2.00781,3.48047 -4.049,0.912 -8.05192,2.04069 -12.04492,3.17969 -2.116,0.603 -5.20774,0.67536 -4.05274,4.19336 0.991,3.017 -0.32948,7.65752 5.72852,7.35352 8.642,-0.433 17.32133,-0.10938 25.98633,-0.10938 v -0.0312 c 8.498,0 17.00318,-0.19101 25.49218,0.084 4.05,0.13201 5.91743,-0.89267 6.35743,-5.26367 0.355,-3.521 0.33403,-5.64551 -3.79297,-6.35351 -2.907,-0.498 -5.61982,-2.04539 -8.50782,-2.77539 -2.152,-0.546 -3.30351,-1.51564 -4.10351,-3.68164 -2.586,-7.008 -5.61242,-13.85557 -8.23242,-20.85157 -5.937,-15.849 -11.53872,-31.82532 -17.63672,-47.61132 -6.819,-17.653 -13.55158,-35.33105 -19.26758,-53.37305 -0.68,-2.148 -1.80936,-2.56577 -3.56836,-2.50977 z m -17.80469,20.74805 c 3.073,8.044 6.15869,15.86481 9.05469,23.75781 4.045,11.025 7.83656,22.14672 11.97656,33.13672 1.261,3.348 0.339,4.04156 -2.875,3.97656 -11.806,-0.237 -23.61287,-0.32436 -35.42187,-0.44336 -2.287,-0.023 -4.17749,-0.33314 -3.14649,-3.36914 6.332,-18.653 12.66997,-37.3044 19.04297,-55.9414 0.127,-0.374 0.70414,-0.59319 1.36914,-1.11719 z"
     style="fill:#717372;fill-opacity:1" /><path
     id="path14"
     d="m 526.75195,474.69531 c -21.984,-0.061 -43.93564,1.87667 -65.93164,1.13867 -2.853,-0.096 -4.1662,1.0443 -4.6582,3.9043 -1.125,6.536 -1.19725,6.55183 5.09375,8.04883 2.264,0.538 4.49452,1.219 6.72852,1.875 3.16699,0.931 5.12145,2.8377 5.31445,6.3457 0.164,2.986 0.76587,5.9565 0.79687,8.9375 0.129,12.496 0.18368,24.99519 0.13868,37.49219 -0.057,15.662 -0.0678,31.32642 -0.42579,46.98242 -0.234,10.276 -0.49234,10.271 -9.65234,13.5 -1.414,0.499 -2.85205,0.93847 -4.24805,1.48047 -2.074,0.804 -5.41975,0.26983 -4.21875,4.42383 1.008,3.488 0.36235,7.56884 6.40235,7.21484 9.299,-0.545 18.65532,-0.14258 27.98632,-0.14258 0,-0.005 -9.5e-4,-0.0106 -0.002,-0.0156 9.998,0 19.99914,-0.12013 29.99414,0.0469 5.506,0.092 4.53108,-4.54067 5.45508,-7.38867 1.129,-3.484 -2.0705,-3.20822 -4.3125,-3.69922 -5.022,-1.101 -9.96381,-2.59545 -15.00781,-3.56445 -3.409,-0.655 -4.86947,-2.48877 -4.98047,-5.75977 -0.266,-7.82099 -0.42528,-15.64893 -0.86328,-23.46093 -0.263,-4.709 1.86725,-5.6183 6.03125,-4.9043 11.282,1.937 22.55186,1.28475 33.75586,-0.78125 22.091,-4.074 36.2665,-19.143 38.4375,-41 1.948,-19.614 -4.57207,-35.92278 -22.78906,-44.55078 -9.241,-4.377 -18.97893,-6.09505 -29.04493,-6.12305 z m -7.51757,14.40039 c 4.85275,-0.0759 9.71003,0.36041 14.58203,1.62891 10.324,2.688 14.43653,10.36419 16.51953,19.74219 2.908,13.089 1.59329,25.38254 -7.22071,36.18554 -0.995,1.22 -2.04325,2.06727 -3.53125,2.57227 -12.184,4.131 -24.58167,3.37934 -37.01367,1.65234 -2.616,-0.363 -2.13348,-2.64647 -2.14648,-4.35547 -0.067,-8.489 -0.0312,-16.97875 -0.0312,-25.46875 h 0.77539 c 0,-8.49 0.11455,-16.98175 -0.0645,-25.46875 -0.06,-2.832 0.92017,-4.60906 3.57617,-5.03906 4.854,-0.784 9.70193,-1.37334 14.55469,-1.44922 z"
     style="fill:#717372;fill-opacity:1" /><path
     fill-rule="evenodd"
     clip-rule="evenodd"
     fill="#626165"
     d="m -42.328,586.407 c 0.005,1.833 -0.284,3.721 0.054,5.488 1.851,9.694 -3.275,14.854 -11.428,18.317 -21.882,9.294 -44.531,11.832 -67.159,4.495 -23.615,-7.658 -37.182,-25.076 -41.693,-49.43 -3.723,-20.096 -2.087,-39.714 8.426,-57.487 12.928,-21.857 32.869,-33.093 58.139,-34.781 17.148,-1.146 33.336,2.6 48.823,9.895 4.089,1.926 5.688,5.058 5.235,9.192 -1.104,10.086 -2.928,20.064 -5.081,29.98 -0.07,0.325 -0.034,0.799 -0.237,0.952 -4.35,3.303 -9.154,0.904 -13.762,1.066 -2.654,0.094 -3.147,-1.51 -3.533,-3.771 -1.286,-7.533 -2.875,-15.013 -4.24,-22.533 -0.318,-1.751 -0.731,-2.995 -2.634,-3.754 -15.237,-6.076 -30.314,-5.357 -45.024,1.425 -6.544,3.018 -9.871,9.489 -12.5,15.674 -9.168,21.564 -10.487,43.57 -1.047,65.41 6.358,14.711 18.318,22.504 34.061,24.005 8.089,0.771 16.153,0.063 24.07,-2.778 4.598,-1.649 5.985,-4.768 6.891,-8.706 1.154,-5.022 2.359,-10.05 3.126,-15.138 0.426,-2.826 1.901,-3.616 4.324,-3.7 0.167,-0.006 0.333,-0.005 0.5,-0.014 14.193,-0.81 14.661,-0.295 14.689,16.193 z"
     id="path16"
     style="fill:#717372;fill-opacity:1" /></g><g
   id="g7511"
   transform="matrix(1.5706132,0,0,1.5706132,1628.6817,-550.67537)"
   style="fill:#717372;fill-opacity:1"><path
     fill-rule="evenodd"
     clip-rule="evenodd"
     fill="#8F9190"
     d="m 249.229,687.044 c 0,5.168 -0.097,8.953 0.032,12.73 0.091,2.649 -1.06,3.475 -3.582,3.422 -2.5,-0.052 -3.587,-0.911 -3.546,-3.542 0.111,-6.998 -0.025,-13.999 0.061,-20.998 0.021,-1.657 -0.989,-4.05 1.588,-4.633 2.245,-0.508 4.457,-0.497 6.215,1.871 3.453,4.65 7.237,9.055 11.179,13.925 2.022,-4.045 1.018,-8.034 0.927,-11.829 -0.074,-3.049 0.807,-4.216 3.867,-4.202 2.856,0.012 3.587,0.989 3.495,3.899 -0.209,6.63 0.244,13.279 0.155,19.917 -0.026,1.919 0.73,4.745 -2.239,5.369 -2.521,0.529 -4.304,-0.311 -6.199,-2.718 -3.337,-4.235 -6.375,-8.906 -11.953,-13.211 z"
     id="path18"
     style="fill:#717372;fill-opacity:1" /><path
     fill-rule="evenodd"
     clip-rule="evenodd"
     fill="#919291"
     d="m -116.146,688.513 c 0,3.601 -0.06,7.202 0.02,10.801 0.062,2.754 -1.158,3.862 -3.903,3.873 -2.864,0.011 -3.151,-1.634 -3.189,-3.882 -0.118,-6.813 0.427,-13.635 -0.424,-20.442 -0.211,-1.687 -0.742,-3.946 1.601,-4.728 2.338,-0.779 4.592,-0.482 6.279,1.693 2.54,3.276 5.115,6.526 7.72,9.751 1.126,1.394 2.363,2.697 4.005,4.559 1.419,-4.302 0.566,-8.046 0.788,-11.688 0.141,-2.312 -0.41,-4.763 3.336,-4.706 3.282,0.05 3.837,1.817 3.816,4.491 -0.053,6.823 -0.018,13.647 -0.021,20.472 0,1.871 0.05,3.899 -2.375,4.282 -1.96,0.31 -3.786,0.268 -5.315,-1.711 -3.514,-4.543 -7.324,-8.857 -11.013,-13.265 -0.443,0.168 -0.884,0.334 -1.325,0.5 z"
     id="path26"
     style="fill:#717372;fill-opacity:1" /><path
     fill-rule="evenodd"
     clip-rule="evenodd"
     fill="#8F9291"
     d="m 90.629,689.809 c 0,-4.719 0.035,-8.692 -0.013,-12.665 -0.031,-2.576 1.172,-3.436 3.694,-3.366 2.707,0.074 2.806,1.71 2.803,3.674 -0.011,7.154 0.045,14.31 -0.02,21.464 -0.014,1.528 0.63,3.637 -1.733,4.08 -1.97,0.369 -3.857,0.282 -5.343,-1.667 -2.899,-3.804 -5.993,-7.463 -9.069,-11.128 -0.807,-0.96 -1.598,-2.469 -3.17,-1.805 -1.374,0.581 -0.666,2.062 -0.692,3.141 -0.065,2.659 -0.084,5.325 0.036,7.98 0.112,2.459 -0.688,3.667 -3.38,3.656 -2.677,-0.01 -3.492,-1.3 -3.485,-3.684 0.019,-7.154 -0.038,-14.31 0.013,-21.463 0.012,-1.561 -0.48,-3.573 1.812,-4.081 1.848,-0.41 3.614,-0.212 4.981,1.429 2.968,3.558 6.038,7.029 8.975,10.611 1.138,1.391 2.121,2.875 4.591,3.824 z"
     id="path28"
     style="fill:#717372;fill-opacity:1" /><path
     id="path32"
     d="m 26.148438,673.20508 c -8.952,-0.072 -16.1609849,6.71476 -16.2089849,15.25976 -0.047,8.559 6.9204999,15.15127 16.0624999,15.19727 9.441,0.048 15.946406,-6.16552 15.941406,-15.22852 -0.003,-8.42 -6.990921,-15.15751 -15.794921,-15.22851 z m 0.07617,5.88672 c 5.037,0.094 8.743703,4.17079 8.720703,9.59179 -0.022,5.366 -3.835171,9.2918 -8.951171,9.2168 -4.782,-0.071 -8.933328,-4.27652 -8.861329,-8.97851 0.086,-5.665 4.024797,-9.92508 9.091797,-9.83008 z"
     style="fill:#717372;fill-opacity:1" /><path
     id="path34"
     d="m 215.47461,673.24219 c -8.757,0.096 -15.56703,6.81976 -15.58203,15.38476 -0.017,8.739 6.72197,14.9553 16.29297,15.0293 8.638,0.067 15.755,-6.83063 15.75,-15.26563 -0.005,-8.50099 -7.33694,-15.24843 -16.46094,-15.14843 z m 0.46094,5.88086 c 4.975,0.007 8.79156,4.28206 8.85156,9.91406 0.052,4.864 -4.287,8.96437 -9.375,8.85937 -4.647,-0.095 -8.24152,-4.02857 -8.35352,-9.14257 -0.121,-5.565 3.63296,-9.63886 8.87696,-9.63086 z"
     style="fill:#717372;fill-opacity:1" /><path
     id="path38"
     d="m -149.61328,673.20117 c -9.197,-0.191 -16.34849,6.54391 -16.39649,15.50391 -0.045,8.35 6.88668,14.52754 15.88868,15.06054 8.085,0.48001 16.97595,-7.09912 16.00195,-15.20312 1.051,-9.058 -8.37014,-15.21233 -15.49414,-15.36133 z m -0.0879,5.89258 c 4.837,0.031 8.87994,4.35898 8.83594,9.45898 -0.046,5.426 -4.10432,9.33185 -9.57032,9.21485 -4.928,-0.106 -8.63154,-4.27758 -8.56054,-9.64258 0.068,-5.063 4.18392,-9.06325 9.29492,-9.03125 z"
     style="fill:#717372;fill-opacity:1" /><path
     fill-rule="evenodd"
     clip-rule="evenodd"
     fill="#959695"
     d="m -51.248,688.056 c 0,-3.651 0.211,-7.319 -0.072,-10.949 -0.198,-2.536 0.748,-3.286 3.036,-3.273 5.323,0.03 10.647,0.016 15.969,-0.051 2.061,-0.025 3.425,0.294 3.59,2.887 0.209,3.295 -2.099,2.351 -3.662,2.438 -2.655,0.149 -5.325,0.075 -7.987,0.029 -2.164,-0.037 -3.469,0.724 -3.588,3.105 -0.132,2.641 1.444,2.983 3.51,2.937 2.163,-0.049 4.328,-0.007 6.491,0.002 1.767,0.008 2.857,0.829 2.945,2.652 0.097,2.037 -0.965,3.11 -2.982,3.163 -2.329,0.062 -4.661,0.03 -6.99,0.081 -2,0.043 -3.019,1.038 -3.063,3.106 -0.047,2.183 0.711,3.556 3.09,3.566 3.326,0.016 6.651,0.045 9.977,0.006 1.798,-0.021 2.807,0.588 2.806,2.573 -10e-4,1.818 -0.64,2.836 -2.575,2.828 -5.826,-0.021 -11.652,-0.045 -17.478,-0.017 -2.536,0.013 -2.986,-1.515 -2.961,-3.6 0.045,-3.828 0.013,-7.657 0.013,-11.485 -0.024,0.002 -0.046,0.002 -0.069,0.002 z"
     id="path44"
     style="fill:#717372;fill-opacity:1" /><path
     id="path48"
     d="m 293.85742,673.82031 c -1.77974,0.03 -2.99812,0.53055 -3.84375,2.55274 -3.184,7.609 -6.56787,15.14014 -10.04687,22.61914 -1.376,2.958 -1.08813,4.43584 2.92187,4.08984 1.882,0.491 2.90781,-0.715 3.50781,-2.75 0.362,-1.229 0.70796,-2.901 2.25196,-3 3.629,-0.232 7.28606,-0.33639 10.91406,-0.15039 2.501,0.128 2.50803,2.70628 3.45703,4.36328 1.373,2.399 3.76363,1.74252 5.76563,1.35352 1.836,-0.355 1.43834,-2.02628 0.90234,-3.23828 -3.466,-7.834 -7.03605,-15.62299 -10.49805,-23.45899 -1.023,-2.313 -2.91775,-2.34886 -4.96875,-2.38086 -0.12368,-0.002 -0.24463,-0.002 -0.36328,0 z m 0.46289,9.42578 c 0.10948,-0.004 0.222,-0.003 0.33985,0.002 2.839,0.121 3.00934,4.41603 3.65234,6.83203 0.753,2.825 -2.47388,1.19304 -3.67188,2.12304 -1.43099,-0.88199 -4.72671,0.7741 -3.88671,-2.0039 0.7159,-2.36569 0.17267,-6.82406 3.5664,-6.95313 z"
     style="fill:#717372;fill-opacity:1" /><path
     id="path50"
     d="m 122.32617,673.81055 c -2.157,-0.024 -3.63575,0.5659 -4.59375,2.8789 -3.1,7.481 -6.498,14.83691 -9.75,22.25391 -0.553,1.259 -2.06981,2.77447 -0.13281,3.85547 1.429,0.799 3.2947,0.71319 4.7207,-0.38281 0.762,-0.584 1.25208,-1.53375 1.83008,-2.34375 3.431,-4.802 13.87902,-4.4328 16.41602,0.7832 0.933,1.921 2.06634,2.33558 3.77734,2.26758 2.904,0.18 4.21002,-0.63533 2.79102,-3.73633 -3.569,-7.801 -7.06715,-15.636 -10.49415,-23.5 -0.96299,-2.211 -2.73345,-2.05617 -4.56445,-2.07617 z m 0.0586,9.14648 c 0.0388,-10e-4 0.0774,-8.9e-4 0.11718,0 2.644,0.06 3.46997,4.66635 3.79297,7.40235 0.335,2.83 -2.78669,0.94731 -4.17969,1.69531 -1.301,-0.646 -4.39234,0.8015 -3.52734,-1.8125 0.85247,-2.57808 1.35203,-7.19585 3.79688,-7.28516 z"
     style="fill:#717372;fill-opacity:1" /><path
     fill-rule="evenodd"
     clip-rule="evenodd"
     fill="#909191"
     d="m -72.659,703.661 c -4.475,0.119 -7.468,-0.309 -10.208,-1.518 -1.726,-0.762 -2.99,-2.357 -1.931,-4.474 0.949,-1.897 2.571,-1.879 4.244,-0.944 2.772,1.549 5.779,1.328 8.768,1.196 1.458,-0.064 2.619,-0.709 2.853,-2.266 0.236,-1.571 -0.716,-2.472 -2.097,-2.955 -2.66,-0.93 -5.299,-1.938 -8.003,-2.716 -3.691,-1.061 -6.209,-2.783 -6.132,-7.201 0.083,-4.794 2.933,-7.439 6.836,-8.734 3.953,-1.313 8.21,-1.042 12.276,0.17 1.988,0.592 3.237,1.937 2.521,4.103 -0.677,2.046 -2.494,2.101 -4.142,1.447 -2.249,-0.892 -4.53,-1.028 -6.86,-0.806 -1.709,0.163 -3.388,0.587 -3.625,2.71 -0.24,2.162 1.208,2.773 2.987,3.229 2.408,0.616 4.747,1.497 7.141,2.177 3.968,1.127 6.342,3.395 6.177,7.825 -0.16,4.279 -2.593,6.722 -6.358,7.961 -1.865,0.613 -3.9,0.705 -4.447,0.796 z"
     id="path54"
     style="fill:#717372;fill-opacity:1" /><path
     fill-rule="evenodd"
     clip-rule="evenodd"
     fill="#909190"
     d="m -201.215,688.431 c -0.092,-11.664 12.939,-19.491 23.092,-13.676 1.539,0.882 4.84,1.892 2.893,5.145 -1.608,2.687 -3.384,2.154 -5.771,0.643 -4.212,-2.668 -8.07,-1.702 -11.394,2.279 -2.573,3.082 -2.35,8.479 0.487,11.785 3.057,3.563 7.272,4.554 10.949,1.824 2.604,-1.932 4.352,-1.405 5.83,0.762 1.992,2.919 -1.243,4.132 -2.641,4.795 -12.489,5.924 -24.955,-3.402 -23.445,-13.557 z"
     id="path56"
     style="fill:#717372;fill-opacity:1" /><path
     fill-rule="evenodd"
     clip-rule="evenodd"
     fill="#919292"
     d="m 161.132,703.684 c -7.992,0.042 -13.673,-3.843 -15.787,-10.413 -1.903,-5.914 0.028,-13.009 4.437,-16.299 6.146,-4.586 13.391,-5.119 18.955,-1.245 1.422,0.989 4.236,1.582 2.417,4.332 -1.46,2.207 -3.224,1.975 -5.545,0.754 -7.038,-3.704 -13.615,-0.107 -13.835,7.313 -0.229,7.763 6.868,12.347 13.569,8.374 2.687,-1.593 4.143,-1.339 5.706,0.895 2.15,3.07 -1.458,3.062 -2.517,4.164 -2.093,2.178 -5.159,1.901 -7.4,2.125 z"
     id="path60"
     style="fill:#717372;fill-opacity:1" /><path
     fill-rule="evenodd"
     clip-rule="evenodd"
     fill="#919291"
     d="m -0.209,685.514 c -0.144,2.282 -0.358,6.257 -0.656,10.225 -0.299,3.97 -2.599,6.425 -6.305,7.386 -4.13,1.07 -8.238,1.094 -11.743,-1.92 -1.14,-0.98 -1.516,-2.153 -0.289,-3.42 1.059,-1.093 1.917,-1.877 3.814,-1.231 6.705,2.282 8.191,1.12 8.279,-5.925 0.013,-0.996 -0.001,-1.992 -0.002,-2.989 -0.008,-7.686 -0.002,-7.748 -7.634,-8.444 -1.999,-0.183 -3.059,-0.718 -2.983,-2.937 0.071,-2.086 1.261,-2.449 2.94,-2.428 1.494,0.021 2.989,-0.011 4.484,-0.003 12.374,0.063 9.72,-0.885 10.095,11.686 z"
     id="path62"
     style="fill:#717372;fill-opacity:1" /><path
     fill-rule="evenodd"
     clip-rule="evenodd"
     fill="#929392"
     d="m 326.82,685.502 c 0.581,3.922 -1.641,8.561 0.788,11.276 2.324,2.599 6.945,0.594 10.538,0.918 1.74,0.158 3.518,0.325 3.382,2.665 -0.117,2.019 -1.45,2.858 -3.406,2.792 -0.333,-0.011 -0.667,0.029 -0.999,0.01 -5.451,-0.331 -12.313,2.213 -15.979,-0.985 -3.574,-3.119 -0.821,-10.061 -1.173,-15.31 -0.2,-2.982 0.018,-5.991 -0.063,-8.984 -0.067,-2.465 0.339,-4.123 3.461,-4.155 3.022,-0.031 3.67,1.291 3.49,3.938 -0.179,2.65 -0.039,5.322 -0.039,7.835 z"
     id="path66"
     style="fill:#717372;fill-opacity:1" /><path
     fill-rule="evenodd"
     clip-rule="evenodd"
     fill="#939494"
     d="m 182.208,688.527 c 0.006,-3.806 0.081,-7.613 -0.022,-11.417 -0.062,-2.254 0.651,-3.375 3.095,-3.317 2.192,0.052 3.927,0.168 3.892,3.082 -0.093,7.777 -0.116,15.556 -0.031,23.332 0.032,3.003 -1.886,2.853 -3.947,3.066 -2.715,0.281 -3.007,-1.29 -2.997,-3.328 0.017,-3.806 0.003,-7.612 0.01,-11.418 z"
     id="path68"
     style="fill:#717372;fill-opacity:1" /></g><g
   id="g7525"
   transform="matrix(1.540535,0,0,1.540535,862.84948,-451.40803)"><path
     id="path22"
     d="m 539.98633,673.7793 c -2.22681,0.0473 -3.14242,1.10718 -3.06836,3.51562 0.113,3.651 0.0283,7.30985 0.0312,10.96485 0.003,3.822 0.0151,7.64289 -0.002,11.46289 -0.008,1.795 0.19478,3.40072 2.55078,3.38672 5.809,-0.033 11.67725,0.61476 17.40625,-0.49024 6.699,-1.292 8.88631,-7.41052 4.57031,-12.72852 -1.341,-1.652 -1.16334,-2.56629 -0.40234,-4.27929 2.862,-6.441 -0.0557,-11.12769 -7.17774,-11.55469 -4.47,-0.268 -8.96631,-0.11044 -13.44531,-0.27344 -0.16019,-0.006 -0.31444,-0.007 -0.46289,-0.004 z m 6.34765,5.14648 c 0.7849,-0.0229 1.60422,0.10599 2.23047,0.006 3.173,-0.047 6.26107,0.17767 6.16407,3.38867 -0.119,3.923 -3.72958,3.42435 -6.51758,3.52735 -2.63,0.097 -4.53103,-0.44016 -4.45703,-3.78516 0.0594,-2.64062 1.27192,-3.09863 2.58007,-3.13672 z m 2.27344,11.86328 c 1.54801,-0.007 3.09281,0.0522 4.58594,0.33594 1.889,0.358 3.86286,1.36531 3.63086,3.94531 -0.241,2.678 -2.3178,2.85433 -4.3418,2.98633 -0.984,0.064 -1.97489,0.0117 -2.96289,0.0117 -0.004,0.052 -0.008,0.1023 -0.0117,0.1543 -1.627,-0.148 -3.35547,-0.005 -4.85547,-0.52149 -1.705,-0.588 -1.3799,-2.40728 -1.3789,-3.86328 0.002,-1.699 0.73273,-2.95809 2.55273,-2.99609 0.92213,-0.0191 1.85245,-0.0483 2.78125,-0.0527 z"
     style="fill:#626165;fill-opacity:1" /><path
     fill-rule="evenodd"
     clip-rule="evenodd"
     fill="#909291"
     d="m 746.721,687.308 c 0,5.106 -0.103,8.885 0.034,12.654 0.104,2.883 -1.516,3.258 -3.803,3.18 -2.186,-0.074 -3.848,-0.262 -3.771,-3.239 0.181,-6.992 0.03,-13.992 0.119,-20.988 0.023,-1.831 -0.925,-4.308 1.979,-4.921 2.409,-0.509 4.566,-0.015 6.19,2.165 2.482,3.332 5.098,6.564 7.672,9.826 1.096,1.388 1.979,3.057 4.244,3.424 0,-3.875 0.02,-7.606 -0.007,-11.339 -0.018,-2.351 0.193,-4.218 3.377,-4.302 3.162,-0.083 3.459,1.525 3.423,4.036 -0.098,6.995 0.015,13.993 -0.047,20.989 -0.014,1.527 0.755,3.654 -1.565,4.172 -2.151,0.48 -3.942,0.112 -5.635,-1.993 -3.489,-4.342 -6.519,-9.159 -12.21,-13.664 z"
     id="path24"
     style="fill:#626165;fill-opacity:1" /><path
     id="path30"
     d="m 375.65234,673.73242 c -7.42689,0.0849 -7.42495,2.10991 -7.41601,12.90235 v 1.49609 c 0.014,0 0.0271,9.5e-4 0.0391,0.002 0,3.827 -0.005,7.65152 0.004,11.47852 0.005,2.04 0.50373,3.62615 3.05273,3.53515 5.148,-0.183 10.33055,0.009 15.43555,-0.54101 5.475,-0.589 10.78798,-6.8443 11.20898,-12.4043 0.706,-9.345 -5.68529,-15.89578 -15.90429,-16.30078 -2.59632,-0.10294 -4.70603,-0.18757 -6.41993,-0.16797 z m 4.66016,5.4043 c 3.94467,-0.0191 8.16598,2.06978 9.7168,5.4414 1.842,4.005 1.13123,7.78961 -2.25977,10.84961 -3.2,2.888 -7.1113,2.39552 -10.9043,2.10352 -1.638,-0.127 -1.90871,-1.57748 -1.88671,-3.02148 0.031,-1.996 0.008,-3.99424 0.008,-5.99024 0.017,-0.002 0.0328,-0.002 0.0488,-0.002 0,-0.333 -0.0683,-0.6841 0.0117,-0.9961 0.72399,-2.833 -2.09791,-6.99634 3.12109,-8.15234 0.69281,-0.15328 1.41404,-0.22889 2.14453,-0.23242 z"
     style="fill:#626165;fill-opacity:1" /><path
     id="path36"
     d="m 509.35352,673.25195 c -8.183,0.158 -15.24707,7.06513 -15.16407,14.82813 0.095,8.925 6.62985,15.58104 15.33985,15.62304 9.75,0.047 16.63842,-6.26007 16.60742,-15.20507 -0.032,-8.807 -7.3212,-15.4291 -16.7832,-15.2461 z m 0.875,5.72266 c 4.89229,0.10965 8.77946,4.30361 8.80078,9.61914 0.021,5.25 -3.85086,9.20331 -9.00586,9.19531 -5.078,-0.008 -8.76533,-3.98192 -8.73633,-9.41992 0.025,-4.81 4.02684,-9.24958 8.46484,-9.39258 0.15982,-0.005 0.31875,-0.005 0.47657,-0.002 z"
     style="fill:#626165;fill-opacity:1" /><path
     id="path40"
     d="m 712.85547,673.58789 c -9.655,0.04 -15.91195,6.06602 -15.87695,15.29102 0.033,8.552 7.1246,14.86353 16.5996,14.76953 8.896,-0.089 15.2473,-6.27863 15.2793,-14.89063 0.033,-9.201 -6.30495,-15.21092 -16.00195,-15.16992 z m -0.01,5.51563 c 1.76881,0.0451 3.56188,0.87018 5.5,2.46093 3.898,3.2 4.85319,7.94592 2.36719,11.79493 -3.322,5.14598 -7.30419,5.86321 -13.61719,2.44921 -8.8e-4,-10e-4 -10e-4,-0.003 -0.002,-0.004 -2.10233,-4.17124 -3.35218,-8.42134 -1.20313,-12.98633 2.448,-2.54306 4.68091,-3.77278 6.95508,-3.71484 z"
     style="fill:#626165;fill-opacity:1" /><path
     id="path42"
     d="m 471.70508,673.71484 c -3.40413,-0.0369 -6.86836,0.48683 -10.25586,0.36133 -1.727,-0.064 -1.4588,1.8965 -1.4668,3.1875 -0.02,3.647 -0.006,7.29341 -0.006,10.94141 0.009,0 0.0183,9.5e-4 0.0274,0.002 0,3.48 -0.0515,6.96241 0.0195,10.44141 0.041,2.023 -0.65796,4.42487 2.87304,4.54687 3.106,0.106 4.27965,-1.09473 3.93164,-4.05273 -0.38299,-3.263 1.0856,-4.51025 4.3086,-4.28125 1.968,0.138 4.00536,0.0543 5.94336,-0.30469 3.824,-0.71 7.02708,-2.72702 7.83008,-6.66602 0.833,-4.09 0.74036,-8.14273 -3.30664,-11.17773 -3.15,-2.364 -6.49432,-2.96117 -9.89844,-2.99805 z m -1.91211,5.5 c 0.23108,0.005 0.48162,0.0243 0.75,0.0586 3.313,0.424 7.57706,0.18814 7.41406,5.36914 -0.18,5.7 -4.93937,4.36831 -8.23437,4.82031 -4.127,0.567 -2.49016,-2.85514 -2.91016,-4.61914 0.0872,-2.62875 -0.48573,-5.70669 2.98047,-5.62891 z"
     style="fill:#626165;fill-opacity:1" /><path
     id="path46"
     d="m 619.14844,673.79297 c -2.03,-0.044 -3.34375,0.59544 -4.21875,2.64844 -3.166,7.43 -6.56321,14.75996 -9.78321,22.16797 -0.649,1.493 -2.50267,3.64415 0.23633,4.53515 1.977,0.642 4.25766,0.62019 5.72266,-2.25781 2.889,-5.675 13.85328,-5.77808 16.73828,-0.20508 1.072,2.07 2.27336,2.57342 4.81836,2.35742 0.744,-0.439 3.877,0.87364 2.375,-2.56836 -3.56,-8.151 -7.28181,-16.23123 -10.88281,-24.36523 -1.029,-2.326 -2.97586,-2.2675 -5.00586,-2.3125 z m 0.30859,9.14648 c 0.0435,-0.002 0.0881,-6.7e-4 0.13281,0 2.613,0.04 3.35363,4.69186 3.76563,7.38086 0.431,2.812 -2.70666,0.99631 -4.09766,1.69531 -1.294,-0.628 -4.25773,0.98336 -3.55273,-1.80664 0.66544,-2.63418 1.01415,-7.16949 3.75195,-7.26953 z"
     style="fill:#626165;fill-opacity:1" /><path
     fill-rule="evenodd"
     clip-rule="evenodd"
     fill="#909291"
     d="m 408.719,687.68 c 0.705,-3.919 -2.265,-10.02 1.242,-13.048 3.104,-2.68 8.968,-0.88 13.594,-0.727 2.481,0.081 6.818,-1.771 6.933,2.366 0.132,4.743 -4.463,2.338 -7.021,2.813 -1.773,0.329 -3.653,0.1 -5.486,0.094 -2.248,-0.008 -2.733,1.372 -2.761,3.282 -0.03,2.096 0.706,3.041 2.974,2.811 2.145,-0.219 4.328,-0.021 6.491,-0.102 2.43,-0.092 4.441,0.298 4.29,3.374 -0.155,3.178 -2.66,2.327 -4.491,2.448 -1.825,0.12 -3.665,0.085 -5.496,0.024 -2.347,-0.079 -3.804,0.605 -3.864,3.323 -0.06,2.709 1.265,3.477 3.689,3.412 2.83,-0.075 5.664,0.012 8.496,0.027 2.026,0.012 3.716,0.485 3.7,2.98 -0.016,2.445 -1.823,2.404 -3.53,2.405 -4.998,0.002 -9.999,-0.123 -14.993,0.018 -2.764,0.078 -3.934,-0.864 -3.806,-3.718 0.162,-3.656 0.039,-7.327 0.039,-11.782 z"
     id="path52"
     style="fill:#626165;fill-opacity:1" /><path
     fill-rule="evenodd"
     clip-rule="evenodd"
     fill="#8F908F"
     d="m 641.771,688.753 c -0.239,-7.33 3.348,-11.875 9.388,-14.213 5.246,-2.03 10.742,-2.23 15.545,1.605 1.096,0.875 3.531,1.584 1.392,3.715 -1.381,1.377 -2.747,3.171 -5.039,1.324 -2.333,-1.882 -4.956,-2.918 -7.877,-1.721 -2.998,1.229 -5.628,3.043 -6.072,6.626 -0.49,3.949 -0.205,7.943 3.444,10.284 3.045,1.951 6.799,2.499 9.876,0.105 2.57,-2 4.081,-1.377 5.641,0.901 2.114,3.088 -1.386,3.381 -2.51,4.118 -5.006,3.284 -10.56,2.919 -15.66,0.454 -5.469,-2.639 -8.495,-7.263 -8.128,-13.198 z"
     id="path58"
     style="fill:#626165;fill-opacity:1" /><path
     fill-rule="evenodd"
     clip-rule="evenodd"
     fill="#949595"
     d="m 574.183,688.262 c 0,-3.498 0.17,-7.008 -0.055,-10.491 -0.174,-2.699 0.469,-4.031 3.462,-4.003 2.949,0.027 3.588,1.429 3.612,4.061 0.049,5.149 0.62,10.299 0.553,15.442 -0.048,3.637 1.511,4.713 4.82,4.468 2.153,-0.16 4.329,-0.026 6.494,-0.027 1.732,-10e-4 2.814,0.601 2.902,2.577 0.103,2.277 -1.102,2.848 -3.068,2.877 -5.323,0.077 -10.646,0.202 -15.968,0.354 -2.363,0.067 -2.703,-1.423 -2.701,-3.264 0.006,-3.998 0.002,-7.996 0.002,-11.994 -0.017,0 -0.035,0 -0.053,0 z"
     id="path64"
     style="fill:#626165;fill-opacity:1" /><path
     fill-rule="evenodd"
     clip-rule="evenodd"
     fill="#919392"
     d="m 686.205,688.6 c 0,3.646 -0.085,7.294 0.029,10.936 0.077,2.461 -0.715,3.657 -3.381,3.633 -2.434,-0.021 -3.081,-1.122 -3.137,-3.339 -0.19,-7.607 0.52,-15.229 -0.479,-22.828 -0.301,-2.289 1.096,-3.161 3.38,-3.139 2.059,0.02 3.634,0.196 3.601,2.807 -0.051,3.976 -0.014,7.954 -0.013,11.93 z"
     id="path70"
     style="fill:#626165;fill-opacity:1" /><path
     fill-rule="evenodd"
     clip-rule="evenodd"
     fill="#B0B0B0"
     d="m 709.76,671.462 c 4.146,-6.471 6.575,-7.492 11.194,-4.364 -3.848,1.524 -5.994,6.427 -11.194,4.364 z"
     id="path76"
     style="fill:#626165;fill-opacity:1" /></g><path
   fill-rule="evenodd"
   clip-rule="evenodd"
   fill="#ddd0b1"
   d="m 2138.5295,264.26748 c 3.467,-2.843 5.317,-7.447 9.895,-9.08 -1.998,4.445 -5.166,7.614 -9.895,9.08 z"
   id="path78" />
</svg>
